<?xml version="1.0" encoding="UTF-8" standalone="no"?>
<!-- Created with Inkscape (http://www.inkscape.org/) -->

<svg
   width="500"
   height="500"
   viewBox="0 0 132.29166 132.29167"
   version="1.1"
   id="svg1"
   xmlns="http://www.w3.org/2000/svg"
   xmlns:svg="http://www.w3.org/2000/svg">
  <defs
     id="defs1" />
  <g
     id="layer1">
    <g
       id="g4"
       transform="matrix(1.9007882,0,0,1.9007882,-40.714574,-158.519)">
      <path
         style="fill:#2563eb;fill-opacity:1;stroke-width:0.264583"
         d="m 60.944881,141.99498 c 0,0 0.868929,4.67424 -6.232319,3.20605 -7.101247,-1.46819 -14.26242,-2.93638 -14.26242,-2.93638 0,0 -1.857711,-0.53934 -2.127377,-3.44576 -0.269668,-2.90641 -0.779041,-12.7343 -0.779041,-12.7343 0,0 0.299632,-2.36708 2.397045,-2.36708 2.097416,0 18.427287,0.20974 18.427287,0.20974 0,0 2.63675,-0.23971 2.666714,2.78656 0.02996,3.02627 -0.08989,15.28117 -0.08989,15.28117 z"
         id="path3" />
      <path
         style="fill:#fde047;fill-opacity:1;stroke-width:0.264583"
         d="m 39.610627,100.62996 c 0,0 0.67749,-2.800292 2.3938,-3.297119 1.716309,-0.496827 20.686053,-6.232916 20.686053,-6.232916 0,0 3.613282,-1.219483 3.613282,2.438966 0,3.658452 0.225833,17.524429 0.225833,17.524429 0,0 -0.270997,2.8003 -2.935796,3.47779 -2.664796,0.67749 -21.002212,4.83276 -21.002212,4.83276 0,0 -3.206789,0.85816 -3.161625,-2.43896 0.04517,-3.29713 0.180665,-16.30495 0.180665,-16.30495 z"
         id="path4" />
      <path
         style="fill:#dc2626;fill-opacity:1;stroke-width:0.264583"
         d="m 72.555946,108.83392 c 0,0 2.562682,0.56058 2.32243,3.4436 -0.240249,2.88302 -3.123268,20.26121 -3.123268,20.26121 0,0 -0.480502,2.88302 -4.644861,1.92201 -4.164359,-0.961 -18.018863,-5.20545 -18.018863,-5.20545 0,0 -2.125589,-0.79548 -1.176785,-4.38444 0.948804,-3.58895 4.04273,-16.29468 4.04273,-16.29468 0,0 0.701292,-3.05267 4.145862,-2.45451 5.47204,0.978 10.963656,1.83729 16.452755,2.71226 z"
         id="path2" />
    </g>
  </g>
</svg>
